<svg xmlns="http://www.w3.org/2000/svg" width="32" height="32" viewBox="0 0 32 32">
  <rect width="32" height="32" rx="7" fill="#0ea5e9"/>
  <g stroke="white" stroke-width="2" stroke-linecap="round" stroke-linejoin="round" fill="none">
    <path d="M8 5h16v9.5Q24 21 16 21Q8 21 8 14.5Z"/>
    <path d="M8 8Q4 8 4 12.5Q4 17 8 17"/>
    <path d="M24 8Q28 8 28 12.5Q28 17 24 17"/>
    <line x1="16" y1="21" x2="16" y2="26"/>
    <line x1="10" y1="26" x2="22" y2="26"/>
    <path d="M16 8.5L17 11h2.5l-2 1.5.8 2.5L16 13.5l-2.3 1.5.8-2.5-2-1.5H15Z" fill="white" stroke="none"/>
  </g>
</svg>
