<svg xmlns="http://www.w3.org/2000/svg" viewBox="0 0 600 600">
  <rect width="600" height="600" fill="white"/>
  <g transform="translate(0,600) scale(0.1,-0.1)" fill="#0ea5e9" stroke="none">
    <path d="M2775 5215 c-239 -30 -446 -90 -661 -195 -235 -114 -422 -253 -609 -451 -387 -409 -599 -1019 -545 -1571 85 -877 730 -1609 1593 -1808 102 -23 137 -25 137 -7 0 8 -44 23 -127 41 -293 64 -591 208 -836 406 -93 75 -257 245 -333 346 -343 454 -480 1039 -370 1580 179 875 873 1517 1760 1625 156 19 451 6 604 -26 592 -123 1090 -498 1375 -1035 261 -491 306 -1058 127 -1585 -221 -653 -800 -1168 -1474 -1314 -106 -23 -116 -27 -116 -42 0 -15 49 -10 155 15 522 127 967 445 1260 901 161 249 265 546 305 868 19 152 8 422 -24 589 -111 581 -472 1098 -976 1396 -378 223 -821 318 -1245 267z"/>
    <path d="M2368 5173 c7 -3 16 -2 19 1 4 3 -2 6 -13 5 -11 0 -14 -3 -6 -6z"/>
    <path d="M2751 4998 c-106 -13 -323 -70 -432 -113 -495 -196 -897 -618 -1065 -1119 -132 -397 -132 -791 0 -1179 91 -267 229 -495 426 -701 227 -237 568 -435 883 -511 117 -29 127 -30 127 -12 0 7 -40 21 -103 35 -111 26 -281 89 -398 147 -110 56 -282 172 -381 259 -425 371 -667 960 -619 1500 42 471 226 858 565 1183 172 165 370 291 596 379 348 134 787 152 1147 48 745 -216 1272 -894 1300 -1674 9 -244 -14 -410 -88 -634 -155 -471 -507 -868 -966 -1086 -98 -47 -294 -114 -380 -131 -41 -7 -63 -16 -63 -25 0 -18 9 -18 106 6 128 30 229 68 369 135 567 276 951 802 1040 1426 27 190 15 452 -29 641 -50 218 -177 500 -303 678 -81 113 -288 325 -393 401 -254 186 -535 302 -832 344 -114 16 -389 18 -507 3z"/>
    <path d="M2386 4367 c-23 -17 -24 -62 -2 -86 9 -9 16 -32 16 -49 l0 -31 -42 42 c-125 124 -305 124 -388 -1 -77 -117 -59 -320 44 -475 76 -115 175 -201 353 -305 127 -75 148 -93 158 -134 6 -23 2 -29 -24 -43 -49 -25 -41 -77 14 -95 42 -14 95 6 120 44 l17 26 58 -54 c32 -29 80 -64 107 -76 26 -13 49 -24 51 -26 2 -1 -4 -16 -12 -33 -20 -38 -20 -43 3 -70 10 -12 24 -49 29 -81 22 -124 -26 -261 -110 -315 -26 -16 -52 -42 -58 -57 -7 -15 -16 -25 -21 -22 -11 6 -50 -14 -66 -35 -7 -9 -13 -28 -13 -43 0 -26 -3 -28 -40 -28 l-40 0 0 -210 c0 -180 -2 -210 -15 -210 -29 0 -55 -38 -55 -79 0 -77 -46 -71 526 -71 l514 0 0 59 c0 64 -15 91 -51 91 -18 0 -19 9 -19 210 l0 210 -35 0 c-32 0 -35 3 -35 28 0 35 -33 72 -64 72 -16 0 -27 9 -36 28 -6 15 -33 41 -58 57 -58 37 -96 104 -113 195 -13 77 0 164 32 201 23 27 23 32 3 70 -8 17 -14 32 -12 32 74 37 113 62 159 105 l57 52 17 -26 c33 -51 114 -64 151 -23 22 24 12 62 -21 77 -52 24 -18 83 81 141 177 104 215 131 304 221 137 137 193 253 194 405 1 94 -21 163 -68 213 -47 51 -82 66 -157 66 -82 0 -162 -36 -214 -96 l-35 -42 0 34 c0 18 7 42 16 51 22 24 21 69 -2 86 -26 19 -1192 19 -1218 0z m1209 -42 c0 -20 -8 -20 -594 -23 -362 -1 -599 2 -604 7 -5 5 -7 17 -4 25 6 15 68 16 604 14 590 -3 598 -3 598 -23z m-1323 -52 c32 -17 67 -48 90 -78 33 -43 38 -56 36 -95 -3 -39 -6 -45 -27 -48 -31 -5 -51 21 -51 66 0 45 -60 107 -113 117 -207 39 -254 -234 -78 -456 60 -75 158 -155 283 -231 116 -69 117 -71 147 -135 17 -35 40 -77 51 -94 19 -25 20 -32 8 -56 -17 -36 -57 -58 -91 -49 -32 8 -37 41 -9 51 31 9 44 50 28 88 -15 38 -47 62 -179 141 -163 96 -253 175 -328 290 -65 98 -83 157 -83 271 -1 111 12 152 66 206 57 57 158 62 250 12z m1674 5 c18 -13 46 -45 61 -73 25 -44 28 -60 28 -140 -1 -233 -139 -413 -455 -595 -41 -23 -86 -52 -98 -64 -57 -51 -64 -116 -17 -138 33 -15 32 -46 -1 -54 -33 -8 -68 8 -90 42 -17 26 -17 28 4 63 13 20 36 64 53 98 27 55 37 66 102 104 266 156 398 303 428 476 28 158 -50 262 -178 238 -51 -9 -109 -69 -118 -120 -10 -63 -13 -67 -42 -63 -24 3 -29 8 -31 37 -5 51 5 77 45 122 35 38 88 72 143 90 43 14 129 2 166 -23z m-383 -70 c-26 -642 -203 -1025 -505 -1089 -118 -26 -253 26 -356 136 -34 35 -73 85 -88 111 -93 159 -168 458 -179 719 -3 66 -8 135 -10 153 l-4 32 572 0 572 0 -2 -62z m-1335 -12 c42 -22 61 -49 71 -101 5 -27 17 -55 27 -62 21 -16 56 -17 71 -2 7 7 12 -12 17 -63 9 -94 51 -303 77 -380 11 -33 18 -62 16 -64 -7 -8 -245 156 -293 203 -101 98 -164 223 -164 327 0 67 11 99 46 131 31 29 89 33 132 11z m1651 -1 c59 -30 76 -134 41 -247 -38 -122 -147 -242 -322 -354 -64 -41 -119 -74 -122 -74 -3 0 2 16 10 35 26 63 74 278 86 388 8 69 15 102 21 92 4 -8 19 -15 32 -15 36 0 65 34 65 74 0 38 38 92 74 106 33 14 84 11 115 -5z m-838 -1110 c53 6 56 5 67 -20 7 -14 12 -30 12 -35 0 -6 -52 -10 -125 -10 -81 0 -125 4 -125 10 0 6 7 24 15 39 14 28 16 29 57 19 24 -5 68 -6 99 -3z m37 -123 c-14 -36 -14 -157 1 -207 20 -73 67 -141 121 -176 27 -18 50 -37 50 -43 0 -8 -79 -11 -255 -11 -186 0 -255 3 -255 12 0 6 20 23 44 37 50 29 97 95 122 168 16 49 16 185 0 233 -7 19 -3 20 88 17 l95 -3 -11 -27z m245 -474 c9 -7 19 -25 22 -40 l7 -28 -360 -2 -359 -3 8 30 c16 55 17 55 354 55 234 0 315 -3 328 -12z m95 -293 l2 -195 -425 0 -425 0 0 198 0 197 422 -2 423 -3 3 -195z m63 -242 c1 -10 2 -31 2 -48 l1 -30 -492 -1 -492 -1 0 42 c0 23 3 45 7 48 3 4 224 7 490 7 453 0 483 -1 484 -17z"/>
    <path d="M2707 2319 c-3 -11 -15 -23 -26 -26 -19 -5 -21 -13 -21 -99 0 -76 3 -94 15 -94 8 0 22 -11 31 -25 l16 -25 273 0 272 0 11 25 c7 15 20 25 32 25 19 0 20 6 20 95 0 77 -3 95 -15 95 -8 0 -22 11 -31 25 l-16 25 -278 0 c-273 0 -278 0 -283 -21z m564 -30 c26 -28 29 -38 29 -100 0 -49 -4 -69 -13 -69 -7 0 -18 -9 -25 -20 -12 -19 -23 -20 -267 -20 l-254 0 -26 25 c-22 23 -25 34 -25 93 0 56 3 69 20 80 11 7 20 19 20 27 0 13 36 15 256 15 l256 0 29 -31z"/>
    <path d="M2980 1448 c-1 -37 -36 -104 -66 -125 -16 -12 -49 -26 -72 -33 -48 -13 -51 -31 -6 -41 37 -7 87 -33 103 -53 7 -9 21 -41 30 -71 10 -31 22 -56 26 -56 5 0 17 23 27 53 22 64 73 114 131 125 54 11 58 29 7 43 -75 20 -107 47 -130 106 -11 30 -20 59 -20 64 0 6 -7 10 -15 10 -9 0 -15 -9 -15 -22z m101 -155 c38 -18 50 -33 27 -33 -23 0 -81 -54 -98 -92 -17 -39 -17 -39 -24 -13 -11 45 -38 77 -80 96 l-39 17 35 15 c36 15 88 78 88 107 0 8 12 -6 27 -32 18 -33 38 -53 64 -65z"/>
  </g>
</svg>
